<svg xmlns="http://www.w3.org/2000/svg" width="512" height="512" viewBox="0 0 512 512" fill="none"><circle cx="256" cy="256" r="256" fill="#1F3A2A"></circle><path d="M171.553 352.57L73.3667 137.858L127.066 138.136L190.454 294.767L171.553 352.57ZM171.553 352.57L170.843 315.966L247.969 137.864L269.569 137.976L189.157 313.361C188.751 314.559 187.739 316.854 186.121 320.245C184.705 323.438 183.086 327.13 181.264 331.32C179.442 335.511 177.821 339.602 176.4 343.595C175.18 347.389 174.465 350.385 174.253 352.584L171.553 352.57ZM238.86 158.817C241.491 152.83 241.215 148.229 238.032 145.012C234.849 141.596 231.358 139.878 227.558 139.858L224.858 139.844L224.874 136.844L289.073 137.177L289.058 140.177C289.058 140.177 288.558 140.175 287.558 140.169C286.758 140.165 286.358 140.163 286.358 140.163C281.958 140.14 277.25 141.616 272.234 144.59C267.42 147.365 263.395 152.144 260.16 158.927L238.86 158.817ZM135.361 158.28L82.5622 158.006C79.3975 151.189 75.3225 146.368 70.3371 143.542C65.5528 140.517 60.8606 138.993 56.2607 138.969C56.2607 138.969 55.8607 138.967 55.0607 138.962C54.2607 138.958 53.8607 138.956 53.8607 138.956L53.8763 135.956L149.275 136.452L149.259 139.451L146.559 139.437C142.76 139.418 139.351 141.1 136.333 144.484C133.517 147.67 133.193 152.268 135.361 158.28Z" fill="#F2E8D5"></path><path d="M338.88 190H377.28C395.627 190 410.453 192.667 421.76 198C433.28 203.333 441.813 210.693 447.36 220.08C453.12 229.253 456.213 239.707 456.64 251.44C457.067 262.32 455.253 272.24 451.2 281.2C447.147 290.16 441.6 297.627 434.56 303.6C427.52 309.573 419.413 313.947 410.24 316.72C401.28 319.28 391.893 319.92 382.08 318.64C372.48 317.147 363.093 313.413 353.92 307.44V304.24C353.92 304.24 355.2 304.24 357.76 304.24C360.533 304.24 363.947 303.813 368 302.96C372.267 302.107 376.64 300.507 381.12 298.16C385.813 295.813 390.187 292.187 394.24 287.28C398.293 282.373 401.387 275.867 403.52 267.76C404.373 264.987 404.907 261.893 405.12 258.48C405.547 254.853 405.653 251.547 405.44 248.56C405.227 234.907 401.493 224.027 394.24 215.92C387.2 207.6 377.173 203.44 364.16 203.44H342.08C342.08 203.44 341.76 202.373 341.12 200.24C340.693 197.893 340.16 195.653 339.52 193.52C339.093 191.173 338.88 190 338.88 190ZM343.04 190V414H295.04V190H343.04ZM296 390.64V414H270.4V410.8C270.613 410.8 271.253 410.8 272.32 410.8C273.6 410.8 274.347 410.8 274.56 410.8C280.107 410.8 284.8 408.88 288.64 405.04C292.693 400.987 294.827 396.187 295.04 390.64H296ZM296 213.36H295.04C295.04 207.813 293.013 203.12 288.96 199.28C284.907 195.227 280.107 193.2 274.56 193.2C274.347 193.2 273.707 193.2 272.64 193.2C271.573 193.2 270.933 193.2 270.72 193.2L270.4 190H296V213.36ZM342.08 390.64H343.04C343.253 396.187 345.28 400.987 349.12 405.04C353.173 408.88 357.973 410.8 363.52 410.8C363.733 410.8 364.373 410.8 365.44 410.8C366.72 410.8 367.467 410.8 367.68 410.8V414H342.08V390.64Z" fill="#F2E8D5"></path></svg>